# Blender v2.78 (sub 0) OBJ File: '2.blend'
# www.blender.org
mtllib PUSHILIN_bear.mtl
o bear
v 0.196472 -0.110645 -0.207446
v 0.096108 -0.074620 -0.378938
v 0.188713 0.621529 -0.063134
v 0.232615 0.587030 -0.378938
v 0.365371 0.272903 -0.069686
v 0.491042 0.272903 -0.378938
v 0.274293 0.631621 0.600978
v 0.032318 -0.336719 -0.673007
v 0.406424 -0.076001 -0.584798
v 0.267782 0.566261 -0.584798
v 0.444441 0.319134 -0.658783
v 0.312317 -0.337841 -0.730462
v 0.346459 -0.076001 -0.953626
v 0.267782 0.546187 -0.743119
v 0.329342 0.317539 -0.919464
v 0.248159 -0.307297 -0.939130
v 0.019985 -0.306176 -0.881675
v 0.117578 -0.727602 -0.690019
v 0.186381 -0.728050 -0.711479
v 0.154725 -0.711504 -0.814060
v 0.085921 -0.711057 -0.792601
v 0.116482 -0.783043 -0.669339
v 0.198306 -0.783043 -0.694785
v 0.165014 -0.783043 -0.802667
v 0.083190 -0.783043 -0.777221
v 0.206712 -0.017552 0.295026
v 0.230555 0.635158 0.273854
v 0.381158 0.273290 0.267545
v 0.307936 0.205086 0.620014
v 0.219397 -0.173794 -0.185647
v 0.039490 -0.215712 -0.168286
v 0.219397 -0.173794 0.175920
v 0.039490 -0.179433 0.232702
v 0.210719 -0.423186 -0.082837
v 0.018422 -0.423186 -0.082837
v 0.210719 -0.423186 0.134677
v 0.018422 -0.423186 0.143625
v 0.140053 -0.690304 0.008625
v 0.058387 -0.690304 0.008625
v 0.140053 -0.690304 0.118678
v 0.058387 -0.690304 0.123206
v 0.148459 -0.758999 -0.002936
v 0.079197 -0.758999 0.050670
v 0.148459 -0.758999 0.129774
v 0.079197 -0.758999 0.129564
v 0.130911 0.705200 0.715668
v 0.154251 0.519628 0.980603
v 0.232621 0.336607 0.930944
v 0.081073 0.191015 1.129005
v 0.208127 0.265885 0.861010
v 0.081073 0.097354 1.016501
v 0.011258 0.641076 0.840791
v 0.131272 0.546718 0.798904
v 0.011258 0.658242 0.781914
v 0.131272 0.562795 0.743762
v 0.145607 -0.710550 0.200507
v 0.061905 -0.710550 0.205035
v 0.154224 -0.758999 0.211603
v 0.053289 -0.758999 0.217063
v 0.136174 -0.740320 -0.650413
v 0.196313 -0.740644 -0.669164
v 0.131476 -0.782560 -0.615936
v 0.215955 -0.782560 -0.642203
v 0.220639 0.647358 0.828247
v 0.100625 0.741716 0.870134
v 0.106141 0.320495 1.034613
v 0.114014 0.214794 0.883359
v 0.100625 0.758882 0.811257
v 0.220639 0.663435 0.773105
v 0.071265 0.593897 0.819847
v 0.071265 0.610518 0.762838
v 0.200909 0.765301 0.792181
v 0.200909 0.748680 0.849190
v 0.111250 0.505820 -0.831846
v 0.111250 0.431208 -0.874448
v 0.111250 0.544422 -0.901141
v 0.111250 0.469809 -0.964094
v -0.196473 -0.110645 -0.207446
v -0.096108 -0.074620 -0.378938
v -0.188713 0.621529 -0.063134
v -0.232615 0.587030 -0.378938
v -0.000000 0.741685 -0.074178
v -0.000000 -0.179543 -0.207446
v -0.000000 0.648061 -0.378938
v -0.000000 -0.114810 -0.378938
v -0.365371 0.272903 -0.069686
v -0.491043 0.272903 -0.378938
v -0.274293 0.631621 0.600978
v -0.032318 -0.336719 -0.673007
v -0.406424 -0.076001 -0.584798
v -0.267782 0.566261 -0.584798
v -0.000000 0.614598 -0.584798
v -0.000000 -0.148109 -0.514485
v -0.444441 0.319134 -0.658783
v -0.312317 -0.337841 -0.730462
v -0.346459 -0.076001 -0.953626
v -0.267782 0.546187 -0.743119
v -0.000000 0.600424 -0.795092
v -0.000000 -0.090160 -0.953626
v -0.329342 0.317539 -0.919464
v -0.000000 0.323720 -0.976632
v -0.248159 -0.307297 -0.939130
v -0.019985 -0.306176 -0.881675
v -0.117578 -0.727602 -0.690019
v -0.186381 -0.728050 -0.711479
v -0.154725 -0.711504 -0.814060
v -0.085921 -0.711057 -0.792601
v -0.116482 -0.783043 -0.669339
v -0.198306 -0.783043 -0.694785
v -0.165014 -0.783043 -0.802667
v -0.083190 -0.783043 -0.777221
v -0.206712 -0.017552 0.295026
v -0.230555 0.635158 0.273854
v -0.000000 0.747871 0.214710
v 0.000000 -0.075345 0.319538
v -0.381158 0.273290 0.267545
v 0.000000 0.683816 0.501710
v -0.307936 0.205086 0.620014
v 0.000000 0.055402 0.444517
v -0.219397 -0.173794 -0.185647
v -0.039490 -0.215712 -0.168286
v -0.219397 -0.173794 0.175920
v -0.039490 -0.179433 0.232702
v -0.210719 -0.423186 -0.082837
v -0.018422 -0.423186 -0.082837
v -0.210719 -0.423186 0.134677
v -0.018422 -0.423186 0.143625
v -0.140053 -0.690304 0.008625
v -0.058387 -0.690304 0.008625
v -0.140053 -0.690304 0.118678
v -0.058387 -0.690304 0.123206
v -0.148459 -0.758999 -0.002936
v -0.079197 -0.758999 0.050670
v -0.148459 -0.758999 0.129774
v -0.079197 -0.758999 0.129564
v -0.130911 0.705200 0.715668
v 0.000000 0.767453 0.775842
v -0.154251 0.519628 0.980603
v 0.000000 0.532997 1.069340
v -0.232621 0.336607 0.930944
v 0.000000 0.374232 1.005078
v -0.081073 0.191015 1.129005
v 0.000000 0.166446 1.213228
v -0.208127 0.265885 0.861010
v -0.081073 0.097354 1.016501
v 0.000000 0.036623 1.047748
v 0.000000 0.190004 0.756149
v -0.011258 0.641076 0.840791
v -0.131272 0.546718 0.798904
v -0.011257 0.658242 0.781914
v -0.131272 0.562795 0.743762
v -0.145607 -0.710550 0.200507
v -0.061905 -0.710550 0.205035
v -0.154224 -0.758999 0.211603
v -0.053289 -0.758999 0.217063
v -0.136174 -0.740320 -0.650413
v -0.196313 -0.740644 -0.669164
v -0.131476 -0.782560 -0.615936
v -0.215955 -0.782560 -0.642203
v -0.220639 0.647358 0.828247
v -0.100625 0.741716 0.870134
v 0.000000 0.101535 1.130488
v -0.106141 0.320495 1.034613
v -0.114014 0.214794 0.883359
v 0.000000 0.171995 0.843221
v -0.100625 0.758882 0.811257
v -0.220639 0.663435 0.773105
v -0.071265 0.593897 0.819847
v -0.071265 0.610518 0.762838
v -0.200909 0.765301 0.792181
v -0.200909 0.748680 0.849190
v -0.000000 0.505820 -0.831846
v -0.000000 0.431208 -0.874448
v -0.111250 0.505820 -0.831846
v -0.111250 0.431208 -0.874448
v -0.000000 0.599088 -0.926248
v -0.000000 0.478213 -1.028233
v -0.111250 0.544422 -0.901141
v -0.111250 0.469809 -0.964094
vt 0.7909 0.0128
vt 0.7909 0.0972
vt 0.7146 0.0743
vt 0.7340 0.0173
vt 0.3222 0.2704
vt 0.2352 0.2704
vt 0.2571 0.1499
vt 0.3036 0.1435
vt 0.0127 0.0128
vt 0.1248 0.0608
vt 0.1183 0.1544
vt 0.0259 0.1544
vt 0.9542 0.6355
vt 0.9140 0.6355
vt 0.9173 0.5848
vt 0.9362 0.5843
vt 0.3421 0.7407
vt 0.4083 0.7430
vt 0.4083 0.8244
vt 0.3515 0.8277
vt 0.5251 0.2763
vt 0.5251 0.3902
vt 0.4642 0.3900
vt 0.4501 0.3135
vt 0.4260 0.5303
vt 0.4260 0.6178
vt 0.3629 0.6166
vt 0.3421 0.5261
vt 0.6181 0.7219
vt 0.6715 0.6563
vt 0.6715 0.7564
vt 0.6349 0.7786
vt 0.6127 0.8013
vt 0.6715 0.7897
vt 0.6715 0.8679
vt 0.6308 0.8404
vt 0.8161 0.2649
vt 0.8161 0.3615
vt 0.7533 0.3315
vt 0.7537 0.2680
vt 0.7406 0.5220
vt 0.7406 0.6454
vt 0.6864 0.6178
vt 0.6864 0.5591
vt 0.8830 0.3765
vt 0.8849 0.3576
vt 0.9159 0.3742
vt 0.9159 0.4710
vt 0.4103 0.1422
vt 0.4103 0.2704
vt 0.3521 0.2409
vt 0.3332 0.1336
vt 0.5858 0.8370
vt 0.5858 0.9036
vt 0.5296 0.9134
vt 0.5303 0.8377
vt 0.1327 0.2873
vt 0.2236 0.2952
vt 0.2241 0.4021
vt 0.1281 0.4021
vt 0.6905 0.4938
vt 0.7041 0.4185
vt 0.7583 0.3989
vt 0.7583 0.4907
vt 0.5980 0.2403
vt 0.5206 0.2403
vt 0.5494 0.1341
vt 0.5684 0.1336
vt 0.6258 0.0128
vt 0.6258 0.1153
vt 0.5512 0.0705
vt 0.5563 0.0130
vt 0.1006 0.3194
vt 0.1147 0.4275
vt 0.0127 0.4275
vt 0.0285 0.3267
vt 0.8271 0.3410
vt 0.8276 0.2653
vt 0.8705 0.2649
vt 0.8845 0.3410
vt 0.5101 0.9434
vt 0.5050 0.9280
vt 0.5171 0.9193
vt 0.5171 0.9345
vt 0.1913 0.6546
vt 0.1281 0.6546
vt 0.1579 0.5390
vt 0.1769 0.5388
vt 0.8081 0.2350
vt 0.7500 0.2404
vt 0.7794 0.1352
vt 0.8081 0.1336
vt 0.6199 0.2649
vt 0.6772 0.2695
vt 0.6772 0.3837
vt 0.6491 0.3811
vt 0.6440 0.9851
vt 0.6442 0.9659
vt 0.6643 0.9640
vt 0.6643 0.9868
vt 0.9632 0.7290
vt 0.9588 0.7005
vt 0.9787 0.7036
vt 0.9787 0.7339
vt 0.9638 0.1991
vt 0.9680 0.1710
vt 0.9816 0.1679
vt 0.9816 0.1979
vt 0.2352 0.4380
vt 0.3225 0.4076
vt 0.3225 0.5090
vt 0.5408 0.6397
vt 0.5974 0.6339
vt 0.5974 0.7136
vt 0.5296 0.7323
vt 0.1157 0.6618
vt 0.1157 0.8000
vt 0.1002 0.7901
vt 0.0945 0.6831
vt 0.3152 0.6185
vt 0.2410 0.6139
vt 0.2352 0.5201
vt 0.3152 0.5247
vt 0.0220 0.4597
vt 0.0890 0.4386
vt 0.0890 0.5201
vt 0.0127 0.5504
vt 0.4390 0.3098
vt 0.4330 0.3902
vt 0.3427 0.3902
vt 0.3421 0.2816
vt 0.6794 0.3989
vt 0.6794 0.5109
vt 0.6201 0.4922
vt 0.6146 0.4294
vt 0.8719 0.3576
vt 0.8719 0.4998
vt 0.8390 0.4598
vt 0.8568 0.3607
vt 0.9038 0.1568
vt 0.9143 0.0985
vt 0.9482 0.1071
vt 0.9532 0.1568
vt 0.9763 0.2649
vt 0.9763 0.3228
vt 0.9571 0.3229
vt 0.9618 0.2715
vt 0.4407 0.7986
vt 0.5034 0.7986
vt 0.4775 0.8689
vt 0.4458 0.8689
vt 0.6864 0.7571
vt 0.6864 0.6565
vt 0.7521 0.6684
vt 0.7521 0.7289
vt 0.9477 0.7274
vt 0.8981 0.7275
vt 0.8945 0.6557
vt 0.9477 0.6570
vt 0.0166 0.8685
vt 0.0659 0.8546
vt 0.0659 0.9277
vt 0.0127 0.9294
vt 0.9779 0.4638
vt 0.9779 0.4956
vt 0.9605 0.4837
vt 0.9605 0.4618
vt 0.1883 0.8484
vt 0.1281 0.8484
vt 0.1326 0.7718
vt 0.1631 0.7718
vt 0.6659 0.9528
vt 0.6127 0.9528
vt 0.6246 0.8791
vt 0.6472 0.8790
vt 0.2884 0.9281
vt 0.2352 0.9281
vt 0.2547 0.8506
vt 0.2773 0.8506
vt 0.1789 0.9489
vt 0.1789 0.9795
vt 0.1618 0.9824
vt 0.1618 0.9455
vt 0.9845 0.3803
vt 0.9674 0.3828
vt 0.9727 0.3602
vt 0.9845 0.3576
vt 0.4717 0.9856
vt 0.4744 0.9630
vt 0.4928 0.9629
vt 0.4928 0.9823
vt 0.5992 0.7434
vt 0.5992 0.8259
vt 0.5296 0.8045
vt 0.5568 0.7733
vt 0.8955 0.8958
vt 0.8963 0.8523
vt 0.9419 0.8625
vt 0.9419 0.9287
vt 0.1203 0.1655
vt 0.1203 0.2342
vt 0.1021 0.2070
vt 0.9498 0.2180
vt 0.9053 0.2180
vt 0.9038 0.1781
vt 0.9527 0.1679
vt 0.8132 0.5381
vt 0.8529 0.5220
vt 0.8529 0.6444
vt 0.8270 0.6237
vt 0.5185 0.4014
vt 0.5185 0.5237
vt 0.4902 0.5230
vt 0.4407 0.4767
vt 0.1964 0.9698
vt 0.1924 0.9457
vt 0.2147 0.9355
vt 0.2147 0.9841
vt 0.7258 0.9526
vt 0.7491 0.9361
vt 0.7491 0.9672
vt 0.0127 0.7663
vt 0.0763 0.7689
vt 0.0763 0.8416
vt 0.0314 0.8435
vt 0.8834 0.7530
vt 0.8430 0.7447
vt 0.8370 0.6557
vt 0.8834 0.6727
vt 0.9873 0.0354
vt 0.9709 0.0342
vt 0.9704 0.0128
vt 0.9873 0.0140
vt 0.4279 0.9177
vt 0.4279 0.9410
vt 0.4155 0.9432
vt 0.4155 0.9151
vt 0.9652 0.5843
vt 0.9824 0.5873
vt 0.9824 0.6116
vt 0.9691 0.6074
vt 0.9044 0.2292
vt 0.9268 0.2291
vt 0.9268 0.2525
vt 0.9038 0.2526
vt 0.1066 0.5959
vt 0.1066 0.5784
vt 0.1170 0.5754
vt 0.1170 0.5999
vt 0.8825 0.9696
vt 0.8688 0.9724
vt 0.8726 0.9611
vt 0.8825 0.9550
vt 0.1145 0.2871
vt 0.1145 0.3071
vt 0.1021 0.3053
vt 0.1021 0.2878
vt 0.1159 0.4891
vt 0.1159 0.5248
vt 0.1001 0.5241
vt 0.1001 0.4884
vt 0.2241 0.5388
vt 0.2241 0.5956
vt 0.2031 0.5774
vt 0.2024 0.5391
vt 0.5976 0.9245
vt 0.5976 0.9794
vt 0.5757 0.9625
vt 0.5770 0.9263
vt 0.0657 0.9406
vt 0.0657 0.9686
vt 0.0492 0.9715
vt 0.0497 0.9434
vt 0.1018 0.9383
vt 0.1018 0.9782
vt 0.0770 0.9596
vt 0.0778 0.9309
vt 0.2995 0.8641
vt 0.3292 0.8506
vt 0.3292 0.9154
vt 0.3050 0.8940
vt 0.9270 0.3737
vt 0.9563 0.3576
vt 0.9563 0.4077
vt 0.9341 0.4014
vt 0.3144 0.6497
vt 0.3295 0.6296
vt 0.3295 0.6965
vt 0.3054 0.6991
vt 0.2240 0.6657
vt 0.2240 0.6995
vt 0.2070 0.6999
vt 0.2070 0.6661
vt 0.9867 0.0692
vt 0.9709 0.0680
vt 0.9704 0.0466
vt 0.9867 0.0477
vt 0.2001 0.8288
vt 0.1994 0.7905
vt 0.2218 0.7718
vt 0.2218 0.8285
vt 0.9529 0.9089
vt 0.9543 0.8726
vt 0.9735 0.8523
vt 0.9735 0.9072
vt 0.5027 0.7772
vt 0.5022 0.7518
vt 0.5185 0.7522
vt 0.5185 0.7776
vt 0.8351 0.9860
vt 0.8351 0.9550
vt 0.8578 0.9550
vt 0.8578 0.9859
vt 0.7147 0.9675
vt 0.6864 0.9722
vt 0.6972 0.9390
vt 0.7147 0.9361
vt 0.2641 0.9425
vt 0.2641 0.9731
vt 0.2438 0.9719
vt 0.2352 0.9392
vt 0.2995 0.9266
vt 0.3268 0.9272
vt 0.3268 0.9719
vt 0.3008 0.9535
vt 0.0381 0.9688
vt 0.0153 0.9673
vt 0.0127 0.9406
vt 0.0381 0.9471
vt 0.6070 0.6228
vt 0.5500 0.6144
vt 0.5296 0.5366
vt 0.6070 0.5220
vt 0.0910 0.1655
vt 0.0910 0.3083
vt 0.0390 0.2910
vt 0.0127 0.2005
vt 0.2241 0.1435
vt 0.2241 0.2762
vt 0.1421 0.2672
vt 0.1358 0.1753
vt 0.9460 0.3222
vt 0.8956 0.3006
vt 0.8960 0.2717
vt 0.9460 0.2649
vt 0.2963 0.7528
vt 0.2963 0.8395
vt 0.2489 0.8376
vt 0.2352 0.7574
vt 0.2032 0.5277
vt 0.1281 0.4912
vt 0.1422 0.4143
vt 0.2032 0.4132
vt 0.4296 0.4143
vt 0.4296 0.5150
vt 0.3434 0.5067
vt 0.3421 0.4014
vt 0.6882 0.3218
vt 0.7055 0.2649
vt 0.7423 0.2867
vt 0.7423 0.3860
vt 0.0834 0.7552
vt 0.0426 0.7383
vt 0.0127 0.6618
vt 0.0834 0.6746
vt 0.8259 0.7530
vt 0.7636 0.7500
vt 0.7632 0.6864
vt 0.8259 0.6565
vt 0.6753 0.6451
vt 0.6181 0.6076
vt 0.6200 0.5488
vt 0.6753 0.5220
vt 0.8458 0.8447
vt 0.8844 0.7642
vt 0.8844 0.8741
vt 0.8493 0.8734
vt 0.5362 0.3067
vt 0.6089 0.2763
vt 0.6089 0.3837
vt 0.5477 0.3771
vt 0.6870 0.8567
vt 0.7424 0.8532
vt 0.7424 0.9250
vt 0.6864 0.9184
vt 0.3311 0.2816
vt 0.3311 0.3964
vt 0.2352 0.3925
vt 0.2399 0.2857
vt 0.1281 0.6657
vt 0.1960 0.6688
vt 0.1960 0.7606
vt 0.1418 0.7410
vt 0.4623 0.1194
vt 0.4926 0.0128
vt 0.5117 0.0132
vt 0.5401 0.1194
vt 0.7035 0.1152
vt 0.6469 0.1083
vt 0.6369 0.0502
vt 0.7035 0.0128
vt 0.2751 0.0130
vt 0.3469 0.0128
vt 0.3469 0.1212
vt 0.2452 0.1161
vt 0.3994 0.9107
vt 0.3421 0.9135
vt 0.3566 0.8414
vt 0.3994 0.8388
vt 0.1122 0.5388
vt 0.1170 0.5500
vt 0.1170 0.5643
vt 0.1068 0.5534
vt 0.4407 0.6506
vt 0.4550 0.5349
vt 0.4741 0.5350
vt 0.5039 0.6506
vt 0.7389 0.1401
vt 0.7389 0.2507
vt 0.7101 0.2447
vt 0.6808 0.1336
vt 0.4911 0.6618
vt 0.4911 0.7722
vt 0.4665 0.7874
vt 0.4407 0.6919
vt 0.6127 0.9657
vt 0.6330 0.9640
vt 0.6330 0.9868
vt 0.6128 0.9849
vt 0.1170 0.4682
vt 0.1045 0.4772
vt 0.1001 0.4472
vt 0.1170 0.4386
vt 0.8026 0.9370
vt 0.8223 0.9416
vt 0.8223 0.9715
vt 0.8071 0.9658
vt 0.0127 0.6506
vt 0.0480 0.5615
vt 0.0952 0.6506
vt 0.7811 0.4919
vt 0.7694 0.3989
vt 0.8279 0.4201
vt 0.8279 0.4998
vt 0.8928 0.2479
vt 0.8669 0.2185
vt 0.8779 0.1070
vt 0.8928 0.0985
vt 0.3580 0.0128
vt 0.4512 0.0138
vt 0.4512 0.1212
vt 0.3582 0.1181
vt 0.5443 0.4917
vt 0.5296 0.4014
vt 0.6035 0.4294
vt 0.6035 0.5109
vt 0.2341 0.1201
vt 0.1358 0.1324
vt 0.1438 0.0145
vt 0.2341 0.0128
vt 0.2943 0.7417
vt 0.2352 0.7112
vt 0.2405 0.6484
vt 0.2943 0.6296
vt 0.8558 0.2404
vt 0.8366 0.2377
vt 0.8192 0.1386
vt 0.8558 0.0985
vt 0.8844 0.9438
vt 0.8351 0.9438
vt 0.8407 0.8938
vt 0.8747 0.8852
vt 0.9723 0.8221
vt 0.9578 0.8155
vt 0.9530 0.7642
vt 0.9723 0.7642
vt 0.6864 0.8420
vt 0.6923 0.7683
vt 0.7240 0.7683
vt 0.7490 0.8420
vt 0.3421 0.6289
vt 0.4091 0.6579
vt 0.4091 0.7185
vt 0.3421 0.7296
vt 0.4939 0.8801
vt 0.4939 0.9504
vt 0.4407 0.9518
vt 0.4439 0.8800
vt 0.1319 0.9204
vt 0.1281 0.8595
vt 0.1813 0.8613
vt 0.1813 0.9344
vt 0.9588 0.6575
vt 0.9786 0.6557
vt 0.9786 0.6777
vt 0.9588 0.6894
vt 0.8019 0.0813
vt 0.8279 0.0128
vt 0.8584 0.0128
vt 0.8621 0.0813
vt 0.8732 0.0866
vt 0.8922 0.0128
vt 0.9148 0.0128
vt 0.9265 0.0866
vt 0.8164 0.8485
vt 0.8054 0.9259
vt 0.7828 0.9259
vt 0.7632 0.8485
vt 0.2024 0.6099
vt 0.2214 0.6068
vt 0.2214 0.6437
vt 0.2024 0.6406
vt 0.9833 0.1019
vt 0.9833 0.1247
vt 0.9697 0.1214
vt 0.9642 0.0985
vt 0.9270 0.4870
vt 0.9481 0.4903
vt 0.9481 0.5098
vt 0.9297 0.5096
vt 0.7632 0.8035
vt 0.8008 0.7766
vt 0.8347 0.7642
vt 0.8347 0.8374
vt 0.8955 0.7970
vt 0.9419 0.7642
vt 0.9419 0.8308
vt 0.8964 0.8412
vt 0.4279 0.9040
vt 0.4105 0.8619
vt 0.4279 0.8388
vt 0.9171 0.5731
vt 0.9140 0.5220
vt 0.9605 0.5328
vt 0.9598 0.5731
vt 0.7517 0.6185
vt 0.7596 0.5286
vt 0.8021 0.5220
vt 0.8021 0.6429
vt 0.5095 0.1336
vt 0.5095 0.2518
vt 0.4413 0.2326
vt 0.4214 0.2157
vt 0.3124 0.7647
vt 0.3311 0.7407
vt 0.3311 0.8089
vt 0.3081 0.8001
vt 0.9605 0.4439
vt 0.9801 0.4189
vt 0.9801 0.4507
vt 0.6697 0.2527
vt 0.6090 0.2018
vt 0.6096 0.1336
vt 0.6697 0.1458
vt 0.8713 0.6288
vt 0.8640 0.5498
vt 0.9030 0.5220
vt 0.9030 0.6112
vt 0.3222 0.7102
vt 0.3222 0.7291
vt 0.3054 0.7292
vt 0.3059 0.7103
vt 0.5174 0.9057
vt 0.5050 0.9082
vt 0.5050 0.8800
vt 0.5174 0.8824
vt 0.4407 0.9870
vt 0.4485 0.9649
vt 0.4606 0.9629
vt 0.4606 0.9872
vt 0.9608 0.2291
vt 0.9608 0.2525
vt 0.9379 0.2526
vt 0.9385 0.2293
vt 0.2143 0.4142
vt 0.2238 0.4132
vt 0.2238 0.4375
vt 0.2143 0.4315
vt 0.2752 0.9474
vt 0.2872 0.9392
vt 0.2872 0.9538
vt 0.2792 0.9632
vt 0.4277 0.9741
vt 0.4155 0.9727
vt 0.4155 0.9555
vt 0.4277 0.9543
vt 0.5022 0.6618
vt 0.5181 0.6620
vt 0.5181 0.6975
vt 0.5022 0.6973
vt 0.9593 0.0696
vt 0.9375 0.0696
vt 0.9378 0.0313
vt 0.9587 0.0128
vt 0.4038 0.9795
vt 0.3833 0.9778
vt 0.3819 0.9415
vt 0.4038 0.9247
vt 0.5185 0.7406
vt 0.5027 0.7371
vt 0.5022 0.7086
vt 0.5185 0.7123
vt 0.9235 0.9433
vt 0.9235 0.9727
vt 0.9029 0.9707
vt 0.8955 0.9398
vt 0.1924 0.9176
vt 0.2005 0.8861
vt 0.2204 0.8595
vt 0.2204 0.9243
vt 0.5646 0.9663
vt 0.5428 0.9639
vt 0.5296 0.9365
vt 0.5646 0.9245
vt 0.1042 0.8728
vt 0.1124 0.9198
vt 0.0770 0.9198
vt 0.0812 0.8546
vt 0.2070 0.7134
vt 0.2236 0.7110
vt 0.2236 0.7402
vt 0.2070 0.7426
vt 0.3244 0.8201
vt 0.3244 0.8389
vt 0.3081 0.8390
vt 0.3086 0.8202
vt 0.9277 0.4189
vt 0.9494 0.4191
vt 0.9494 0.4759
vt 0.9270 0.4572
vt 0.9529 0.9200
vt 0.9735 0.9217
vt 0.9735 0.9766
vt 0.9543 0.9563
vt 0.1026 0.2466
vt 0.1185 0.2454
vt 0.1185 0.2747
vt 0.1021 0.2760
vt 0.1508 0.9765
vt 0.1281 0.9766
vt 0.1281 0.9456
vt 0.1508 0.9455
vt 0.7915 0.9417
vt 0.7915 0.9731
vt 0.7741 0.9702
vt 0.7632 0.9370
vt 0.1166 0.8435
vt 0.0874 0.8435
vt 0.0928 0.8141
vt 0.1131 0.8130
vt 0.3435 0.9688
vt 0.3421 0.9419
vt 0.3709 0.9247
vt 0.3709 0.9694
vt 0.9090 0.4821
vt 0.9090 0.5041
vt 0.8830 0.5097
vt 0.8857 0.4828
vn 0.7911 0.6115 0.0134
vn 0.7922 -0.6102 -0.0040
vn 0.8894 -0.4566 0.0233
vn 0.3268 -0.8766 -0.3532
vn 0.3935 0.9054 -0.1591
vn 0.2070 -0.5669 0.7974
vn 0.8211 0.5371 0.1931
vn 0.1468 -0.7937 0.5903
vn 0.8070 0.5353 -0.2494
vn -0.0941 -0.1730 -0.9804
vn -0.9917 -0.1285 0.0013
vn 0.2490 -0.9144 0.3192
vn 0.8088 -0.4317 0.3993
vn 0.2122 0.9710 -0.1098
vn 0.0841 0.0155 -0.9963
vn 0.2028 0.5823 -0.7873
vn 0.2206 -0.0090 0.9753
vn 0.9278 -0.3047 -0.2155
vn 0.9627 -0.0390 -0.2676
vn 0.1958 0.9764 -0.0907
vn -0.8981 0.2554 0.3580
vn -0.2505 -0.2397 -0.9380
vn -0.9781 -0.1757 0.1116
vn 0.8960 -0.3058 -0.3221
vn -0.2924 -0.1902 -0.9372
vn -0.9468 0.1136 0.3011
vn 0.9526 0.1038 -0.2858
vn 0.8581 -0.5071 0.0801
vn 0.4924 0.8683 -0.0604
vn -0.8573 -0.5090 0.0770
vn 0.9043 0.4181 -0.0860
vn 0.2853 0.9547 0.0848
vn 0.9714 0.2281 0.0662
vn -0.9956 0.0930 -0.0054
vn 0.9844 0.1732 -0.0303
vn 0.2575 -0.5672 0.7823
vn 0.0993 -0.4744 -0.8747
vn -0.9890 -0.1480 0.0000
vn 0.9994 -0.0348 -0.0000
vn 0.1717 -0.2614 0.9498
vn -0.0002 -0.3810 -0.9246
vn -0.9571 -0.2899 0.0000
vn 0.9667 -0.2558 0.0000
vn 0.0490 -0.0707 0.9963
vn -0.0000 -0.3239 -0.9461
vn 0.9926 0.1215 -0.0000
vn 0.9896 0.1340 -0.0519
vn -0.3223 -0.2699 -0.9074
vn 0.2857 0.9204 -0.2668
vn 0.3534 -0.2219 0.9088
vn 0.2868 0.8297 0.4789
vn 0.9854 -0.1205 0.1205
vn 0.8057 0.4484 0.3870
vn 0.9712 -0.0065 0.2380
vn 0.4170 -0.8864 -0.2011
vn 0.6605 -0.5907 0.4635
vn 0.2033 -0.9110 0.3588
vn 0.4622 0.7178 0.5206
vn -0.6487 -0.7306 -0.2130
vn 0.0525 0.2318 0.9713
vn -0.9816 -0.1249 -0.1447
vn 0.0131 0.9708 0.2395
vn 0.2390 0.5999 0.7636
vn 0.9481 0.1960 -0.2505
vn 0.0886 0.9600 0.2657
vn 0.7610 -0.6228 -0.1816
vn 0.1551 -0.3456 0.9255
vn -0.0177 0.2382 -0.9710
vn -0.0082 0.9600 0.2799
vn 0.6460 -0.5925 0.4812
vn 0.3072 0.6227 0.7196
vn 0.5051 -0.6928 0.5147
vn 0.4194 -0.7459 -0.5175
vn -0.7610 0.6228 0.1816
vn 0.0363 -0.2532 0.9667
vn -0.1367 0.3317 -0.9334
vn 0.9822 0.1804 0.0526
vn 0.0000 -0.4958 0.8684
vn 0.4395 0.5792 -0.6865
vn 0.1197 0.7731 0.6228
vn 0.0599 -0.9417 -0.3312
vn 1.0000 0.0000 0.0000
vn -0.7911 0.6115 0.0134
vn -0.7922 -0.6102 -0.0040
vn -0.8894 -0.4566 0.0233
vn -0.3268 -0.8766 -0.3532
vn -0.3935 0.9054 -0.1591
vn -0.2070 -0.5669 0.7974
vn -0.8211 0.5371 0.1931
vn -0.1468 -0.7937 0.5903
vn -0.8070 0.5353 -0.2494
vn 0.0941 -0.1730 -0.9804
vn 0.9917 -0.1285 0.0013
vn -0.2490 -0.9144 0.3192
vn -0.8088 -0.4317 0.3993
vn -0.2122 0.9710 -0.1098
vn -0.0841 0.0155 -0.9963
vn -0.2028 0.5823 -0.7873
vn -0.2206 -0.0090 0.9753
vn -0.9278 -0.3047 -0.2155
vn -0.9627 -0.0390 -0.2676
vn -0.1958 0.9764 -0.0907
vn 0.8981 0.2554 0.3580
vn 0.2505 -0.2397 -0.9380
vn 0.9781 -0.1757 0.1116
vn -0.8960 -0.3058 -0.3221
vn 0.2924 -0.1902 -0.9372
vn 0.9468 0.1136 0.3011
vn -0.9526 0.1038 -0.2858
vn -0.8581 -0.5071 0.0801
vn -0.4924 0.8683 -0.0604
vn 0.8573 -0.5090 0.0770
vn -0.9043 0.4181 -0.0860
vn -0.2853 0.9547 0.0848
vn -0.9714 0.2281 0.0662
vn 0.9956 0.0930 -0.0054
vn -0.9844 0.1732 -0.0303
vn -0.2575 -0.5672 0.7823
vn -0.0993 -0.4744 -0.8747
vn 0.9890 -0.1480 0.0000
vn -0.9994 -0.0348 -0.0000
vn -0.1717 -0.2614 0.9498
vn 0.0002 -0.3810 -0.9246
vn 0.9571 -0.2899 0.0000
vn -0.9667 -0.2558 0.0000
vn -0.0490 -0.0707 0.9963
vn -0.9926 0.1215 -0.0000
vn -0.9896 0.1340 -0.0519
vn 0.3223 -0.2699 -0.9074
vn -0.2857 0.9204 -0.2668
vn -0.3534 -0.2219 0.9088
vn -0.2868 0.8297 0.4789
vn -0.9854 -0.1205 0.1205
vn -0.8057 0.4484 0.3870
vn -0.9712 -0.0065 0.2380
vn -0.4170 -0.8864 -0.2011
vn -0.6605 -0.5907 0.4635
vn -0.2033 -0.9110 0.3588
vn -0.4622 0.7178 0.5206
vn 0.6487 -0.7306 -0.2130
vn -0.0525 0.2318 0.9713
vn 0.9816 -0.1249 -0.1447
vn -0.0131 0.9708 0.2395
vn -0.2390 0.5999 0.7636
vn -0.9481 0.1960 -0.2505
vn -0.0886 0.9600 0.2657
vn -0.7610 -0.6228 -0.1816
vn -0.1551 -0.3456 0.9255
vn 0.0177 0.2382 -0.9710
vn 0.0082 0.9600 0.2799
vn -0.6460 -0.5925 0.4812
vn -0.3072 0.6227 0.7196
vn -0.5051 -0.6928 0.5147
vn -0.4194 -0.7459 -0.5175
vn 0.7610 0.6228 0.1816
vn -0.0363 -0.2532 0.9667
vn 0.1367 0.3317 -0.9334
vn -0.9822 0.1804 0.0526
vn -0.4395 0.5792 -0.6865
vn -0.1197 0.7731 0.6228
vn -0.0599 -0.9417 -0.3312
vn -1.0000 0.0000 0.0000
usemtl None
s off
f 4/1/1 6/2/1 11/3/1 10/4/1
f 6/5/2 5/6/2 1/7/2 2/8/2
f 1/9/3 5/10/3 28/11/3 26/12/3
f 1/13/4 83/14/4 85/15/4 2/16/4
f 4/17/5 84/18/5 82/19/5 3/20/5
f 9/21/6 93/22/6 8/23/6 12/24/6
f 4/25/7 3/26/7 5/27/7 6/28/7
f 26/29/8 29/30/8 119/31/8 115/32/8
f 10/33/9 11/34/9 15/35/9 14/36/9
f 99/37/10 13/38/10 16/39/10 17/40/10
f 93/41/11 99/42/11 17/43/11 8/44/11
f 2/45/12 85/46/12 93/47/12 9/48/12
f 6/49/13 2/50/13 9/51/13 11/52/13
f 84/53/14 4/54/14 10/55/14 92/56/14
f 101/57/15 15/58/15 13/59/15 99/60/15
f 98/61/16 14/62/16 15/63/16 101/64/16
f 12/65/17 8/66/17 18/67/17 19/68/17
f 13/69/18 9/70/18 12/71/18 16/72/18
f 11/73/19 9/74/19 13/75/19 15/76/19
f 92/77/20 10/78/20 14/79/20 98/80/20
f 18/81/21 22/82/21 62/83/21 60/84/21
f 17/85/22 16/86/22 20/87/22 21/88/22
f 8/89/23 17/90/23 21/91/23 18/92/23
f 16/93/24 12/94/24 19/95/24 20/96/24
f 21/97/25 20/98/25 24/99/25 25/100/25
f 18/101/26 21/102/26 25/103/26 22/104/26
f 20/105/27 19/106/27 23/107/27 24/108/27
f 26/109/28 28/110/28 29/111/28
f 3/112/29 82/113/29 114/114/29 27/115/29
f 115/116/30 83/117/30 31/118/30 33/119/30
f 5/120/31 3/121/31 27/122/31 28/123/31
f 27/124/32 114/125/32 117/126/32 7/127/32
f 28/128/33 27/129/33 7/130/33 29/131/33
f 33/132/34 31/133/34 35/134/34 37/135/34
f 1/136/35 26/137/35 32/138/35 30/139/35
f 26/140/36 115/141/36 33/142/36 32/143/36
f 83/144/37 1/145/37 30/146/37 31/147/37
f 37/148/38 35/149/38 39/150/38 41/151/38
f 30/152/39 32/153/39 36/154/39 34/155/39
f 32/156/40 33/157/40 37/158/40 36/159/40
f 31/160/41 30/161/41 34/162/41 35/163/41
f 41/164/42 39/165/42 43/166/42 45/167/42
f 34/168/43 36/169/43 40/170/43 38/171/43
f 36/172/44 37/173/44 41/174/44 40/175/44
f 35/176/45 34/177/45 38/178/45 39/179/45
f 38/180/46 40/181/46 44/182/46 42/183/46
f 44/184/47 40/185/47 56/186/47 58/187/47
f 39/188/48 38/189/48 42/190/48 43/191/48
f 7/192/49 117/193/49 137/194/49 46/195/49
f 47/196/50 139/197/50 141/198/50 48/199/50
f 48/200/51 141/201/51 66/202/51
f 66/203/52 49/204/52 51/205/52 67/206/52
f 47/207/53 48/208/53 7/209/53 46/210/53
f 7/211/54 48/212/54 50/213/54 29/214/54
f 67/215/55 165/216/55 147/217/55 50/218/55
f 143/219/56 162/220/56 49/221/56
f 119/222/57 29/223/57 50/224/57 147/225/57
f 46/226/58 137/227/58 139/228/58 47/229/58
f 71/230/59 70/231/59 52/232/59 54/233/59
f 56/234/60 57/235/60 59/236/60 58/237/60
f 41/238/61 45/239/61 59/240/61 57/241/61
f 40/242/62 41/243/62 57/244/62 56/245/62
f 61/246/63 60/247/63 62/248/63 63/249/63
f 23/250/64 19/251/64 61/252/64 63/253/64
f 19/254/65 18/255/65 60/256/65 61/257/65
f 55/258/66 69/259/66 64/260/66 53/261/66
f 70/262/67 73/263/67 65/264/67 52/265/67
f 71/266/68 72/267/68 69/268/68 55/269/68
f 72/270/69 68/271/69 65/272/69 73/273/69
f 51/274/70 49/275/70 162/276/70 146/277/70
f 66/278/71 141/279/71 143/280/71 49/281/71
f 48/282/72 66/283/72 67/284/72 50/285/72
f 51/286/73 146/287/73 165/288/73 67/289/73
f 52/290/74 65/291/74 68/292/74 54/293/74
f 55/294/59 53/295/59 70/296/59 71/297/59
f 53/298/75 64/299/75 73/300/75 70/301/75
f 54/302/76 68/303/76 72/304/76 71/305/76
f 69/306/77 72/307/77 73/308/77 64/309/77
f 173/310/78 75/311/78 74/312/78 172/313/78
f 177/314/79 176/315/79 76/316/79 77/317/79
f 172/318/80 74/319/80 76/320/80 176/321/80
f 75/322/81 173/323/81 177/324/81 77/325/81
f 74/326/82 75/327/82 77/328/82 76/329/82
f 81/330/83 91/331/83 94/332/83 87/333/83
f 87/334/84 79/335/84 78/336/84 86/337/84
f 78/338/85 112/339/85 116/340/85 86/341/85
f 78/342/86 79/343/86 85/344/86 83/345/86
f 81/346/87 80/347/87 82/348/87 84/349/87
f 90/350/88 95/351/88 89/352/88 93/353/88
f 81/354/89 87/355/89 86/356/89 80/357/89
f 112/358/90 115/359/90 119/360/90 118/361/90
f 91/362/91 97/363/91 100/364/91 94/365/91
f 99/366/92 103/367/92 102/368/92 96/369/92
f 93/370/93 89/371/93 103/372/93 99/373/93
f 79/374/94 90/375/94 93/376/94 85/377/94
f 87/378/95 94/379/95 90/380/95 79/381/95
f 84/382/96 92/383/96 91/384/96 81/385/96
f 101/386/97 99/387/97 96/388/97 100/389/97
f 98/390/98 101/391/98 100/392/98 97/393/98
f 95/394/99 105/395/99 104/396/99 89/397/99
f 96/398/100 102/399/100 95/400/100 90/401/100
f 94/402/101 100/403/101 96/404/101 90/405/101
f 92/406/102 98/407/102 97/408/102 91/409/102
f 104/410/103 156/411/103 158/412/103 108/413/103
f 103/414/104 107/415/104 106/416/104 102/417/104
f 89/418/105 104/419/105 107/420/105 103/421/105
f 102/422/106 106/423/106 105/424/106 95/425/106
f 107/426/107 111/427/107 110/428/107 106/429/107
f 104/430/108 108/431/108 111/432/108 107/433/108
f 106/434/109 110/435/109 109/436/109 105/437/109
f 112/438/110 118/439/110 116/440/110
f 80/441/111 113/442/111 114/443/111 82/444/111
f 115/445/112 123/446/112 121/447/112 83/448/112
f 86/449/113 116/450/113 113/451/113 80/452/113
f 113/453/114 88/454/114 117/455/114 114/456/114
f 116/457/115 118/458/115 88/459/115 113/460/115
f 123/461/116 127/462/116 125/463/116 121/464/116
f 78/465/117 120/466/117 122/467/117 112/468/117
f 112/469/118 122/470/118 123/471/118 115/472/118
f 83/473/119 121/474/119 120/475/119 78/476/119
f 127/477/120 131/478/120 129/479/120 125/480/120
f 120/481/121 124/482/121 126/483/121 122/484/121
f 122/485/122 126/486/122 127/487/122 123/488/122
f 121/489/123 125/490/123 124/491/123 120/492/123
f 131/493/124 135/494/124 133/495/124 129/496/124
f 124/497/125 128/498/125 130/499/125 126/500/125
f 126/501/126 130/502/126 131/503/126 127/504/126
f 125/505/45 129/506/45 128/507/45 124/508/45
f 128/509/127 132/510/127 134/511/127 130/512/127
f 134/513/128 154/514/128 152/515/128 130/516/128
f 129/517/129 133/518/129 132/519/129 128/520/129
f 88/521/130 136/522/130 137/523/130 117/524/130
f 138/525/131 140/526/131 141/527/131 139/528/131
f 140/529/132 163/530/132 141/531/132
f 163/532/133 164/533/133 145/534/133 142/535/133
f 138/536/134 136/537/134 88/538/134 140/539/134
f 88/540/135 118/541/135 144/542/135 140/543/135
f 164/544/136 144/545/136 147/546/136 165/547/136
f 143/548/137 142/549/137 162/550/137
f 119/551/138 147/552/138 144/553/138 118/554/138
f 136/555/139 138/556/139 139/557/139 137/558/139
f 169/559/140 150/560/140 148/561/140 168/562/140
f 152/563/141 154/564/141 155/565/141 153/566/141
f 131/567/142 153/568/142 155/569/142 135/570/142
f 130/571/143 152/572/143 153/573/143 131/574/143
f 157/575/144 159/576/144 158/577/144 156/578/144
f 109/579/145 159/580/145 157/581/145 105/582/145
f 105/583/146 157/584/146 156/585/146 104/586/146
f 151/587/147 149/588/147 160/589/147 167/590/147
f 168/591/148 148/592/148 161/593/148 171/594/148
f 169/595/149 151/596/149 167/597/149 170/598/149
f 170/599/150 171/600/150 161/601/150 166/602/150
f 145/603/151 146/604/151 162/605/151 142/606/151
f 163/607/152 142/608/152 143/609/152 141/610/152
f 140/611/153 144/612/153 164/613/153 163/614/153
f 145/615/154 164/616/154 165/617/154 146/618/154
f 148/619/155 150/620/155 166/621/155 161/622/155
f 151/623/140 169/624/140 168/625/140 149/626/140
f 149/627/156 168/628/156 171/629/156 160/630/156
f 150/631/157 169/632/157 170/633/157 166/634/157
f 167/635/158 160/636/158 171/637/158 170/638/158
f 173/639/78 172/640/78 174/641/78 175/642/78
f 177/643/159 179/644/159 178/645/159 176/646/159
f 172/647/160 176/648/160 178/649/160 174/650/160
f 175/651/161 179/652/161 177/653/161 173/654/161
f 174/655/162 178/656/162 179/657/162 175/658/162
